# xmcd
#
# Track frame offsets: 
#        150
#        19838
#        31422
#        53396
#        75471
#        91846
#        108169
#        123078
#        139989
#        154458
#
# Disc length: 2418 seconds
#
# Revision: 0
# Processed by: cddbd v1.5.2PL0 Copyright (c) Steve Scherf et al.
# Submitted via: ExactAudioCopy v0.99pb4
#
DISCID=7009700a
DTITLE=Collin Raye - a family Christmas
DYEAR=2008
DGENRE=Country
TTITLE0=The Chrismas Song
TTITLE1=Angles we have heard on High
TTITLE2=I'll Be Home For Christmas
TTITLE3=It Could Happen Again
TTITLE4=Winter Wonderland
TTITLE5=Away in a Manger
TTITLE6=Santa Claus is Coming to Town
TTITLE7=I'm Dreaming of a White Christmas
TTITLE8=Silent Night
TTITLE9=O Holy Night
EXTD=
EXTT0=
EXTT1=
EXTT2=
EXTT3=
EXTT4=
EXTT5=
EXTT6=
EXTT7=
EXTT8=
EXTT9=
PLAYORDER=
